<svg xmlns="http://www.w3.org/2000/svg" xmlns:xlink="http://www.w3.org/1999/xlink" width="88.509" height="88.509" viewBox="0 0 88.509 88.509">
  <defs>
    <clipPath id="clip-path">
      <rect id="Rectángulo_421141" data-name="Rectángulo 421141" width="64.652" height="60.284" fill="none"/>
    </clipPath>
    <clipPath id="clip-path-2">
      <rect id="Rectángulo_425265" data-name="Rectángulo 425265" width="33.148" height="28.365" fill="none"/>
    </clipPath>
  </defs>
  <g id="Grupo_1176752" data-name="Grupo 1176752" transform="translate(-14.711 -1.033)">
    <g id="Grupo_1175837" data-name="Grupo 1175837" transform="translate(14.711 1.033)">
      <circle id="Elipse_11383" data-name="Elipse 11383" cx="44.254" cy="44.254" r="44.254" fill="#c5cff0" opacity="0.71"/>
      <circle id="Elipse_11384" data-name="Elipse 11384" cx="37.078" cy="37.078" r="37.078" transform="translate(7.176 7.176)" fill="#fff"/>
      <g id="Grupo_1175373" data-name="Grupo 1175373" transform="translate(11.929 14.113)">
        <g id="Grupo_1175373-2" data-name="Grupo 1175373" transform="translate(0 0)" clip-path="url(#clip-path)">
          <path id="Trazado_1039109" data-name="Trazado 1039109" d="M30.09,56.71l-.044-1.94h.044c.2,0,.41,0,.613-.009l.044,1.942c-.218.005-.437.007-.656.007m-2.051-.075c-.236-.015-.47-.037-.7-.059l.186-1.933c.218.022.433.04.653.057Zm4.715-.051-.186-1.933c.219-.022.437-.046.655-.071l.229,1.929c-.232.027-.464.053-.7.075m-7.409-.28c-.234-.038-.466-.082-.7-.13l.382-1.9c.212.044.424.084.638.119Zm10.095-.11-.373-1.905c.214-.042.428-.088.638-.133l.424,1.892c-.229.051-.459.1-.689.146m-12.748-.483c-.227-.062-.452-.13-.675-.2l.563-1.858c.208.064.419.124.631.183Zm15.38-.17-.558-1.859c.21-.062.419-.13.627-.2l.605,1.845c-.223.073-.448.144-.675.212m-17.958-.684c-.218-.084-.433-.172-.649-.26l.744-1.794c.2.084.4.165.607.243Zm20.52-.227-.737-1.8c.2-.084.4-.168.6-.258l.788,1.775c-.216.1-.433.188-.653.278M17.64,53.759c-.21-.106-.419-.214-.625-.325l.92-1.71c.192.1.384.2.578.3ZM43.1,53.471l-.914-1.711c.194-.1.384-.208.574-.316l.958,1.689c-.2.115-.41.229-.618.338M15.282,52.419c-.2-.124-.395-.252-.591-.382l1.082-1.613c.181.121.364.24.549.358Zm30.145-.342-1.077-1.614c.181-.121.362-.245.541-.371l1.115,1.589c-.19.133-.384.267-.58.4M13.066,50.86c-.185-.144-.369-.291-.55-.441l1.234-1.5c.168.137.338.272.51.408Zm34.542-.4-1.227-1.5c.168-.137.336-.278.5-.421l1.267,1.472c-.179.154-.358.305-.541.452m-36.6-1.377c-.17-.163-.338-.325-.5-.492l1.371-1.371c.155.154.313.307.47.457Zm38.614-.444-1.373-1.373c.157-.155.311-.313.461-.47l1.4,1.344c-.161.168-.325.335-.49.5M9.14,47.124c-.155-.179-.307-.358-.455-.543l1.5-1.229c.137.166.276.335.419.5Zm42.309-.486-1.5-1.236c.139-.168.274-.338.41-.51l1.529,1.2c-.144.185-.293.368-.442.549M7.463,44.983c-.135-.192-.267-.386-.4-.581l1.614-1.079c.123.183.245.362.373.541Zm45.609-.521L51.462,43.38c.123-.181.241-.364.36-.549l1.635,1.048c-.126.194-.252.391-.384.583M6.01,42.694c-.117-.2-.23-.411-.342-.62l1.711-.916c.1.192.207.384.314.57Zm48.465-.552-1.71-.92c.1-.192.2-.386.3-.58l1.731.878c-.106.208-.214.415-.325.622M4.783,40.266c-.1-.216-.188-.43-.278-.649L6.3,38.875c.086.2.172.4.26.605Zm50.858-.57-1.79-.748c.082-.2.165-.4.243-.605l1.808.7c-.084.218-.172.435-.261.649M3.8,37.73c-.073-.223-.144-.448-.212-.675l1.858-.561c.064.21.13.419.2.627Zm52.762-.583-1.856-.57c.064-.208.124-.417.183-.625l1.87.517c-.062.229-.128.453-.2.678M3.077,35.11c-.051-.229-.1-.457-.144-.686l1.9-.378c.044.216.09.431.135.644Zm54.151-.6-1.9-.384c.044-.214.084-.43.123-.644l1.911.336c-.04.23-.082.461-.13.691M2.614,32.437c-.029-.232-.055-.466-.077-.7L4.47,31.55c.02.216.044.433.071.649Zm55.018-.607-1.933-.2c.024-.216.042-.431.059-.649l1.936.143c-.018.234-.038.47-.062.7m-55.217-2.1c-.005-.234-.009-.468-.009-.7l0-.192,1.94.016v.176c0,.219,0,.437.007.655Zm53.415-.616,0-.1c0-.176,0-.364-.007-.552l1.942-.042c0,.2.005.406.005.611Zm-51.4-2.132-1.936-.154c.02-.236.04-.468.064-.7l1.931.2c-.022.218-.042.435-.059.655m51.29-.391c-.022-.218-.046-.435-.071-.651l1.929-.23c.027.232.051.466.073.7ZM4.748,24.48l-1.911-.34c.04-.232.084-.463.132-.693l1.9.391c-.044.214-.084.428-.123.642m50.61-.386c-.04-.214-.084-.426-.132-.638l1.894-.422c.051.229.1.461.144.691ZM5.313,22.02l-1.869-.527c.064-.227.13-.452.2-.675l1.856.572c-.066.21-.128.421-.186.629m49.443-.377c-.062-.21-.128-.419-.2-.625l1.845-.6c.073.223.143.446.21.671ZM6.118,19.629l-1.808-.709c.086-.218.176-.433.265-.649l1.788.755c-.084.2-.166.4-.245.6m47.8-.366c-.082-.2-.168-.406-.256-.607l1.777-.777c.1.214.186.431.276.647ZM7.151,17.332l-1.728-.883c.106-.21.216-.417.327-.622l1.706.927c-.1.19-.207.384-.305.578m45.691-.357c-.1-.192-.208-.384-.316-.574l1.691-.954c.115.2.229.41.338.62ZM8.409,15.146,6.772,14.1c.128-.2.258-.393.389-.589L8.767,14.6c-.123.179-.241.36-.358.543m43.141-.338c-.121-.183-.245-.366-.371-.545l1.593-1.113c.133.194.265.386.395.581ZM9.873,13.092l-1.527-1.2c.146-.186.293-.368.442-.549l1.5,1.238c-.139.17-.276.338-.411.51m40.177-.32c-.137-.17-.278-.336-.421-.5l1.476-1.26q.228.266.45.538ZM11.53,11.191l-1.4-1.346q.241-.252.494-.5l1.364,1.379c-.155.154-.309.309-.459.466m36.831-.3c-.154-.155-.309-.307-.468-.459l1.348-1.4c.168.163.336.325.5.494Zm-35-1.435-1.26-1.477c.177-.152.357-.3.539-.45L13.87,9.039c-.17.137-.338.278-.5.421M46.5,9.194c-.168-.139-.338-.276-.512-.411l1.2-1.527c.185.144.366.293.547.442ZM15.364,7.911,14.25,6.32c.192-.133.388-.265.583-.395l1.071,1.618c-.183.121-.362.243-.541.368m29.117-.23c-.183-.123-.366-.241-.55-.36L44.98,5.686c.2.126.391.254.585.386ZM17.5,6.569l-.949-1.693c.2-.115.41-.227.618-.336l.907,1.715c-.194.1-.386.208-.576.314m24.822-.2c-.192-.1-.384-.2-.58-.3l.881-1.731c.208.106.415.216.62.325ZM19.761,5.442l-.777-1.779q.321-.14.647-.274l.737,1.8c-.2.084-.406.17-.607.258m20.29-.157c-.2-.084-.4-.166-.607-.247l.709-1.806c.218.086.433.174.649.263ZM22.125,4.543l-.6-1.847c.223-.071.448-.143.673-.21l.552,1.861c-.208.062-.417.126-.623.2m15.558-.117c-.21-.066-.422-.126-.634-.188l.534-1.865c.225.062.448.128.669.2ZM24.562,3.881,24.14,1.987c.23-.051.461-.1.693-.144L25.2,3.749c-.212.042-.426.086-.636.132M35.238,3.8c-.214-.042-.428-.084-.644-.121l.333-1.912c.232.04.463.084.693.13Zm-8.191-.336L26.82,1.537c.232-.027.464-.053.7-.075L27.7,3.4c-.218.02-.433.042-.651.068m5.7-.042c-.218-.022-.437-.042-.656-.06l.155-1.934c.232.018.464.038.7.062Zm-3.176-.13-.04-1.942c.186,0,.375-.005.563-.005h.135V3.287H30.09c-.176,0-.349,0-.523.005" transform="translate(1.993 1.114)" fill="#6f88da"/>
          <path id="Trazado_1039110" data-name="Trazado 1039110" d="M19.043,36.537,18.869,34.6a26.929,26.929,0,0,0,16.487-7.654l1.364,1.38a28.879,28.879,0,0,1-17.677,8.208" transform="translate(15.631 22.324)" fill="#6f88da"/>
          <path id="Trazado_1039111" data-name="Trazado 1039111" d="M45.485,27.553A26.833,26.833,0,0,0,16.347,3.239l-.261-2.9a29.738,29.738,0,0,1,32.3,26.952Z" transform="translate(13.325 0.178)" fill="#6f88da"/>
          <path id="Trazado_1039112" data-name="Trazado 1039112" d="M28.529,51.759a24.281,24.281,0,1,1,2.2-.1q-1.108.1-2.2.1m.059-47.58q-1.064,0-2.136.1a23.224,23.224,0,1,0,2.136-.1" transform="translate(3.537 2.657)" fill="#d0d0d0"/>
          <path id="Trazado_1039113" data-name="Trazado 1039113" d="M41.258,27.229H38.345a20.821,20.821,0,0,0-20.8-20.8V3.518A23.738,23.738,0,0,1,41.258,27.229" transform="translate(14.536 2.914)" fill="#d0d0d0"/>
          <rect id="Rectángulo_421136" data-name="Rectángulo 421136" width="0.971" height="3.43" transform="translate(31.598)" fill="#596daf"/>
          <rect id="Rectángulo_421137" data-name="Rectángulo 421137" width="0.971" height="3.43" transform="translate(31.598 56.854)" fill="#596daf"/>
          <rect id="Rectángulo_421138" data-name="Rectángulo 421138" width="13.135" height="0.971" transform="translate(0 29.656)" fill="#6f88da"/>
          <rect id="Rectángulo_421139" data-name="Rectángulo 421139" width="13.135" height="0.971" transform="translate(51.03 29.656)" fill="#6f88da"/>
          <rect id="Rectángulo_421140" data-name="Rectángulo 421140" width="0.971" height="6.423" transform="translate(63.681 26.93)" fill="#6f88da"/>
          <path id="Trazado_1039114" data-name="Trazado 1039114" d="M11.987,35.9a31.722,31.722,0,0,1-5.235-4.5A31.528,31.528,0,0,1,2.7,26.016l2.5-1.494a28.718,28.718,0,0,0,3.679,4.884,28.593,28.593,0,0,0,4.756,4.088Z" transform="translate(2.237 20.314)" fill="#d0d0d0"/>
          <path id="Trazado_1039115" data-name="Trazado 1039115" d="M28.173,49.527l-.015-.971.382-.007.029.969Zm-.993-.005-.391-.016.042-.971.386.016Zm2.377-.055-.071-.969.378-.031.086.967ZM25.8,49.437l-.389-.038.1-.965.382.038Zm5.14-.115-.128-.964.377-.053.141.96Zm-6.513-.049-.393-.062.165-.958.371.06Zm7.879-.181-.19-.951.375-.079.2.951Zm-9.244-.069-.386-.086.221-.945.369.084Zm10.6-.241-.247-.938.369-.1.258.936Zm-11.941-.09-.38-.11.278-.931.366.106Zm13.27-.3-.305-.922.362-.124.322.918ZM20.39,48.276l-.371-.132.333-.912.358.13Zm15.9-.366-.362-.9.355-.144.375.894Zm-17.2-.128-.358-.152.386-.89.351.15Zm18.47-.428-.419-.876.346-.168.43.872Zm-19.725-.143-.355-.177.444-.865.336.172Zm20.961-.49-.47-.848.333-.186.483.841Zm-22.186-.157-.342-.2.494-.836.331.19ZM40,46.016l-.521-.821.318-.2.534.81Zm-24.563-.172-.329-.219.545-.8.318.21Zm25.711-.605-.569-.786.305-.227.583.777ZM14.3,45.052l-.314-.238.592-.77.3.229Zm27.947-.658-.614-.753c.1-.079.2-.157.289-.24l.633.737c-.1.086-.2.172-.307.256m-29.029-.2c-.1-.084-.2-.172-.3-.26l.64-.73c.093.082.188.163.283.245Zm30.077-.711-.66-.711.272-.26.678.7Zm-31.11-.212c-.1-.091-.192-.183-.287-.278l.682-.689c.09.088.179.176.271.26Zm32.1-.759-.7-.671.261-.276.711.66ZM11.2,42.282l-.267-.291.724-.651.254.282Zm34-.8-.744-.627.245-.293.748.618ZM10.292,41.24l-.25-.309.761-.6.238.293Zm35.78-.843-.779-.581.223-.305.788.569ZM9.443,40.143l-.232-.322.8-.558.223.309Zm37.422-.881-.812-.53.2-.318.821.517ZM8.661,39l-.208-.335.825-.51.2.322Zm38.93-.912-.845-.481.188-.333.85.47Zm-39.64-.278-.19-.353L8.621,37l.179.331Zm40.29-.942-.87-.431.165-.34.878.417Zm-40.929-.3-.166-.358.883-.4.161.344Zm41.5-.962-.894-.377.144-.351.9.364ZM6.756,35.3l-.144-.371.905-.347.139.351Zm42.559-.986-.918-.322.124-.358.923.3ZM6.277,34l-.123-.382.927-.289.117.36Zm43.455-1-.934-.263.1-.368.938.25ZM5.878,32.663l-.1-.382.94-.236.1.369Zm44.194-1.017-.951-.207.077-.369.953.188ZM5.56,31.316l-.075-.391.954-.174.073.373Zm44.764-1.031-.962-.148.057-.377.96.133Zm-45-.336-.051-.393.964-.117.049.375ZM50.492,28.91l-.965-.09.029-.378.971.073ZM5.179,28.57l-.026-.4.965-.057.027.378Zm45.4-1.044-.971-.031.009-.378.971.015Zm-45.465-.34,0-.4.971-.086,0,.464Zm44.5-1.018-.015-.378.973-.044.013.395Zm-43.5-.41-.973-.046.022-.395.969.06Zm43.426-.916-.037-.377.965-.1.038.395ZM6.207,24.43l-.965-.1.046-.395.964.121Zm43.168-.905-.06-.375.96-.161.062.389ZM6.388,23.119l-.956-.165.071-.388.953.179Zm42.75-.9-.08-.371L50,21.629l.088.388Zm-42.488-.4L5.706,21.6l.093-.386.942.238Zm42.172-.887-.106-.364.932-.276.108.38Zm-41.83-.4-.931-.276.117-.38.925.3Zm41.435-.868-.128-.358.911-.335.133.373ZM7.41,19.278,6.5,18.941l.137-.369.907.349Zm40.543-.856-.148-.349.887-.391.157.366ZM7.906,18.049l-.889-.391.161-.36.883.406Zm39.5-.839-.174-.34.863-.442.181.355ZM8.474,16.853l-.863-.444.183-.349.858.457Zm38.308-.819-.19-.325.832-.5.2.346Zm-37.667-.34-.834-.5.2-.338.825.51ZM46.09,14.9l-.208-.314.8-.547.219.331ZM9.827,14.573l-.8-.541.227-.329.792.561Zm35.5-.762-.229-.3.768-.592.24.316ZM10.6,13.5l-.768-.594.243-.311.759.607Zm33.9-.731-.247-.291.735-.634.256.3Zm-33.059-.293-.73-.64.261-.294.722.651Zm32.172-.7-.261-.274.691-.68.274.285ZM12.35,11.5l-.695-.677c.093-.1.188-.19.283-.283l.678.7c-.09.086-.179.176-.267.263m30.324-.653L42.4,10.6l.644-.726.294.267Zm-29.362-.263-.655-.719c.1-.09.2-.177.3-.265l.634.735c-.093.08-.188.165-.28.249m28.364-.611c-.1-.08-.194-.159-.293-.236l.6-.764c.1.082.207.166.311.252ZM14.323,9.732l-.6-.761.313-.245.591.772Zm26.305-.57-.307-.218.558-.8.32.23ZM15.391,8.936l-.559-.792.327-.227.543.8Zm24.142-.519-.322-.2.506-.83.336.21ZM16.5,8.209l-.51-.826c.113-.071.227-.139.342-.207l.49.837Zm21.891-.468-.331-.181.457-.858.346.188ZM17.653,7.55,17.2,6.693l.353-.183.439.865Zm19.564-.419-.342-.161.406-.881.355.168ZM18.845,6.963l-.4-.887.362-.159.386.89ZM36.006,6.6l-.355-.141L36,5.554l.364.144ZM20.072,6.45l-.342-.907L20.1,5.4l.335.912Zm14.689-.309L34.4,6.022l.3-.923.371.121ZM21.328,6.013l-.285-.927.377-.115L21.7,5.9ZM33.49,5.759l-.369-.1.241-.94.38.1Zm-10.884-.1-.229-.943.386-.09.214.945Zm9.592-.2-.371-.073L32,4.427l.388.075Zm-8.29-.079-.179-.954.393-.068.157.958ZM30.89,5.23l-.377-.049.121-.964.393.051Zm-5.672-.055L25.1,4.214,25.5,4.17l.1.965Zm4.352-.09-.378-.026.064-.969.393.027Zm-3.035-.027-.048-.969.388-.02.044.971Zm1.711-.035-.382,0,.007-.971.389,0Z" transform="translate(4.233 3.354)" fill="#6f88da"/>
          <g id="Grupo_1176758" data-name="Grupo 1176758" transform="translate(15.825 16.342)">
            <g id="Grupo_1176757" data-name="Grupo 1176757" clip-path="url(#clip-path-2)">
              <path id="Trazado_1039889" data-name="Trazado 1039889" d="M22.66,22.8a4.307,4.307,0,0,0,3.266,4.758l.058.549-.249.231-17.777.032c-1.838-.727-.124-1.052.55-1.532,1.381-.983,2.463-2.194,1.9-4.015L2.124,22.6C.614,22.142.185,20.844.1,19.388c-.118-1.924.152-4.371.134-6.362C.2,9.829-.314,5.163.3,2.1.538.9,2.064.2,3.194.231c8.734.571,18.394-.737,27.019,0,1.7.146,2.623.849,2.781,2.621.492,5.511-.386,11.74,0,17.329a2.873,2.873,0,0,1-1.841,2.449Zm8.65-1.356c.4-.293.73-.545.727-1.1-.4-5.625.516-11.945,0-17.486a1.725,1.725,0,0,0-1.828-1.667H2.877A1.771,1.771,0,0,0,1.048,3.01c-.521,5.361.409,11.559,0,17.01.3,1.59,1.218,1.756,2.615,1.828,8.608.442,17.582-.346,26.229,0a2.051,2.051,0,0,0,1.414-.411M21.868,22.8H11.381A4.9,4.9,0,0,1,9.476,27.4H23.614A5.043,5.043,0,0,1,21.868,22.8" transform="translate(0 0)"/>
              <path id="Trazado_1039890" data-name="Trazado 1039890" d="M43.3,14.5a5.061,5.061,0,0,1,.167.866c.426,5.415-.341,11.38,0,16.854l-.23.564-27.9.066-.244-.391.01-17.639a1.421,1.421,0,0,1,.315-.32Zm-2.728,11.4c.25,1.235-1.086,1.323-1.081,1.551,1.94,1.069,1,2.344-.8,2.464.132.351.4.757.294,1.154-.116.435-.738.56-.929.909h4.607V15.531l-.238-.238H15.979V31.973h18.9l-.319-.953c-.649-.035-.724.559-1.428.407-1.16-.25-.587-1.368-.947-1.608-1.619.184-1.977-1.432-.642-2.292a1.3,1.3,0,0,1,.477-2.545,1.3,1.3,0,0,1,1.969-1.6c.8-1.414,2.231-1.292,2.878.17.277.064.682-.828,1.432-.5a6.82,6.82,0,0,1,1.03.906m-3.158.2c-.226-.492-.022-1.115-.736-1.106-1.138.014-.141.951-.946,1.3-.744.324-1.326-1.008-1.819-.316-.247.346.812,1.384-.286,1.7-.323.092-.66-.014-.983.049-.6,1.285.814.84.941,1.493.205,1.055-.75.9-.808,1.134-.323,1.335.994.423,1.4.892l.2,1.547c.723,0,.612-.577,1.473-.443.77.12.4,1.085.987,1.088.565,0,.455-1.005,1.151-1.1.6-.082.708.852,1.312.541s-.133-1.063.3-1.611c.277-.347,2.214-.078,1.213-1.025-.443-.419-.881-.029-.731-1.029.145-.962,1.434-.366,1.053-1.517-.226-.313-1.035.05-1.377-.37s.342-1.675-.564-1.83c-.19-.033-1.052,1.074-1.784.6m1.727,7.8-1.027-.793-.56.953Z" transform="translate(-12.699 -12.195)"/>
              <line id="Línea_4451" data-name="Línea 4451" x2="1.027" y2="0.793" transform="translate(24.176 18.983)" fill="#fff"/>
              <path id="Trazado_1039891" data-name="Trazado 1039891" d="M43.667,23.245c.868.1,1.13-1.06,2.019-.678a4.748,4.748,0,0,1,1.136,1.108l-.614,1.475c2.466-.615,3.569,2.239.951,2.782.008.508,1.005.789,1.191,1.192a1.5,1.5,0,0,1-1.11,1.922c-.36.026-.643-.32-.874.065a1.338,1.338,0,0,1-.4,2.142c-1.059.732-1.235-.228-2.064-.635-.45.092.138,1.532-1.124,1.736-1.427.231-1.571-.3-2.058-1.417-.331-.1-.183.218-.347.316-1.482.883-2.819-.6-2.114-2.065-1.138.234-2,.076-2.133-1.245-.112-1.113.454-1.079,1.173-1.691-.19-.633-.918-.51-1.15-1.083a3.737,3.737,0,0,1,.056-1.293c.261-.983,1.278-.753,2.056-.884.149-.164-1.045-1.938.627-2.473.912-.291,1.092.492,1.906.4a1.449,1.449,0,1,1,2.869.326m-.795-.954-1.122.071c-.347.242.058,1.4-1.067,1.493-.684.059-.986-1.162-1.777-.526s.107,1.018.088,1.585c-.047,1.4-1.867.655-2.142.891-.779,1.525.946,1.21,1.095,1.967.309,1.572-.941,1.268-1.2,1.821,0,1.8,1.414.371,2.063,1.126.6.7-.5,1.612.282,1.953.917.4.941-.479,1.474-.531,1.536-.15.623,1.692,1.429,1.756,1.394.111.619-1.712,1.627-1.888.8-.14,1.491.988,1.787.858,1.215-.78-.089-1.455.489-2.618.246-.209,1.925.7,1.894-.577-.013-.52-1.22-.606-1.283-1.1a2.571,2.571,0,0,1,.088-1.041c.3-.5,1.958-.148,1.008-1.717-.559-.14-1.273.2-1.728-.256-.776-.778.287-1.17.144-1.723-.333-1.292-1.463-.006-1.813.049-1.221.193-1.423-.534-1.342-1.593" transform="translate(-30.378 -18.082)"/>
              <path id="Trazado_1039892" data-name="Trazado 1039892" d="M131.421,79.624c3.545-.386,3.628,4.767.406,4.828a2.427,2.427,0,0,1-.406-4.828m.436.677a1.715,1.715,0,1,0,.278,3.379,1.715,1.715,0,0,0-.278-3.379" transform="translate(-108.794 -66.957)"/>
              <path id="Trazado_1039893" data-name="Trazado 1039893" d="M56.727,40.61c4.615-.483,5.011,6.689.426,6.8-4.277.1-4.607-6.361-.426-6.8m-.165.795c-2.92.474-2.594,4.815-.186,5.194a2.668,2.668,0,1,0,.186-5.194" transform="translate(-45.221 -34.139)"/>
            </g>
          </g>
        </g>
      </g>
    </g>
  </g>
</svg>
